Diabolik-Courant.ufo
<glyph name="exclam" format="2">
  <advance width="300"/>
  <unicode hex="0021"/>
  <outline>
    <contour>
      <point x="160" y="0" type="line"/>
      <point x="160" y="80" type="line"/>
      <point x="80" y="80" type="line"/>
      <point x="80" y="0" type="line"/>
    </contour>
    <contour>
      <point x="80" y="180" type="line"/>
      <point x="80" y="700" type="line"/>
      <point x="200" y="700" type="line"/>
      <point x="160" y="180" type="line"/>
    </contour>
  </outline>
</glyph>
<glyph name="numbersign" format="2">
  <advance width="713"/>
  <unicode hex="0023"/>
  <outline>
    <contour>
      <point x="128" y="0" type="line"/>
      <point x="267.348" y="700" type="line"/>
      <point x="388.348" y="700" type="line"/>
      <point x="209" y="0" type="line"/>
    </contour>
    <contour>
      <point x="349" y="0" type="line"/>
      <point x="488.348" y="700" type="line"/>
      <point x="609.348" y="700" type="line"/>
      <point x="430" y="0" type="line"/>
    </contour>
    <contour>
      <point x="673" y="421" type="line"/>
      <point x="73" y="421" type="line"/>
      <point x="73" y="501" type="line"/>
      <point x="673" y="501" type="line"/>
    </contour>
    <contour>
      <point x="630" y="191" type="line"/>
      <point x="30" y="191" type="line"/>
      <point x="30" y="271" type="line"/>
      <point x="630" y="271" type="line"/>
    </contour>
  </outline>
</glyph>
<glyph name="dollar" format="2">
  <advance width="547"/>
  <unicode hex="0024"/>
  <outline>
    <contour>
      <point x="35" y="388" type="line"/>
      <point x="117" y="700" type="line"/>
      <point x="234" y="729"/>
      <point x="335" y="729"/>
      <point x="461" y="700" type="curve"/>
      <point x="461" y="589" type="line"/>
      <point x="221" y="642" type="line"/>
      <point x="128" y="437" type="line"/>
      <point x="512" y="320" type="line"/>
      <point x="431" y="0" type="line"/>
      <point x="314" y="-31"/>
      <point x="161" y="-31"/>
      <point x="35" y="0" type="curve"/>
      <point x="36" y="121" type="line"/>
      <point x="329" y="59" type="line"/>
      <point x="411" y="234" type="line"/>
    </contour>
    <contour>
      <point x="229" y="850" type="line"/>
      <point x="339" y="850" type="line"/>
      <point x="309" y="-150" type="line"/>
      <point x="229" y="-150" type="line"/>
    </contour>
  </outline>
</glyph>
<glyph name="percent" format="2">
  <advance width="749"/>
  <unicode hex="0025"/>
  <outline>
    <contour>
      <point x="152" y="0" type="line"/>
      <point x="491.348" y="700" type="line"/>
      <point x="614.348" y="700" type="line"/>
      <point x="235" y="0" type="line"/>
    </contour>
    <contour>
      <point x="503.946" y="406.529" type="line"/>
      <point x="572.876" y="406.529" type="line"/>
      <point x="697.994" y="406.529"/>
      <point x="709" y="259.4"/>
      <point x="709" y="174.25" type="curve"/>
      <point x="662.66" y="-3" type="line"/>
      <point x="593.15" y="-3" type="line"/>
      <point x="467.453" y="-3"/>
      <point x="456.447" y="144.129"/>
      <point x="456.447" y="229.858" type="curve"/>
    </contour>
    <contour>
      <point x="568.635" y="336.944" type="line"/>
      <point x="515.612" y="230.437" type="line"/>
      <point x="515.612" y="162.599"/>
      <point x="528.355" y="56.585"/>
      <point x="593.15" y="56.585" type="curve"/>
      <point x="594.392" y="56.585" type="line"/>
      <point x="647.836" y="173.092" type="line"/>
      <point x="647.836" y="250.351"/>
      <point x="637.092" y="336.944"/>
      <point x="572.876" y="336.944" type="curve"/>
    </contour>
    <contour>
      <point x="87.9458" y="699.529" type="line"/>
      <point x="156.876" y="699.529" type="line"/>
      <point x="281.994" y="699.529"/>
      <point x="293" y="552.4"/>
      <point x="293" y="467.25" type="curve"/>
      <point x="246.66" y="290" type="line"/>
      <point x="177.15" y="290" type="line"/>
      <point x="51.4531" y="290"/>
      <point x="40.4474" y="437.129"/>
      <point x="40.4474" y="522.858" type="curve"/>
    </contour>
    <contour>
      <point x="152.635" y="629.944" type="line"/>
      <point x="99.6116" y="523.437" type="line"/>
      <point x="99.6116" y="455.599"/>
      <point x="112.355" y="349.585"/>
      <point x="177.15" y="349.585" type="curve"/>
      <point x="178.392" y="349.585" type="line"/>
      <point x="231.836" y="466.092" type="line"/>
      <point x="231.836" y="543.351"/>
      <point x="221.092" y="629.944"/>
      <point x="156.876" y="629.944" type="curve"/>
    </contour>
  </outline>
</glyph>
<glyph name="quotesingle" format="2">
  <advance width="227"/>
  <unicode hex="0027"/>
  <outline>
    <contour>
      <point x="177" y="600" type="line"/>
      <point x="187" y="700" type="line"/>
      <point x="77" y="700" type="line"/>
      <point x="77" y="600" type="line"/>
      <point x="50" y="485" type="line"/>
      <point x="120" y="485" type="line"/>
    </contour>
  </outline>
</glyph>
<glyph name="asterisk" format="2">
  <advance width="591"/>
  <unicode hex="002A"/>
  <outline>
    <contour>
      <point x="30.882" y="493.725" type="line"/>
      <point x="239.659" y="487.199" type="line"/>
      <point x="58.9025" y="379.74" type="line"/>
      <point x="123.175" y="303.106" type="line"/>
      <point x="265.467" y="454.845" type="line"/>
      <point x="236.728" y="247.518" type="line"/>
      <point x="336.728" y="247.518" type="line"/>
      <point x="307.061" y="455.893" type="line"/>
      <point x="447.516" y="298.676" type="line"/>
      <point x="511.789" y="375.259" type="line"/>
      <point x="334.467" y="485.235" type="line"/>
      <point x="540.424" y="490.475" type="line"/>
      <point x="523.082" y="588.96" type="line"/>
      <point x="329" y="526.57" type="line"/>
      <point x="453.318" y="688.768" type="line"/>
      <point x="366.736" y="738.768" type="line"/>
      <point x="288.778" y="540.868" type="line"/>
      <point x="245.515" y="749.548" type="line"/>
      <point x="151.589" y="715.337" type="line"/>
      <point x="252.183" y="526.571" type="line"/>
      <point x="48.273" y="592.21" type="line"/>
    </contour>
  </outline>
</glyph>
<glyph name="plus" format="2">
  <advance width="511"/>
  <unicode hex="002B"/>
  <outline>
    <contour>
      <point x="291" y="47" type="line"/>
      <point x="211" y="47" type="line"/>
      <point x="211" y="446.934" type="line"/>
      <point x="331" y="446.934" type="line"/>
    </contour>
    <contour>
      <point x="80.5" y="225" type="line"/>
      <point x="80.5" y="305" type="line"/>
      <point x="430.442" y="305" type="line"/>
      <point x="430.442" y="185" type="line"/>
    </contour>
  </outline>
</glyph>
<glyph name="comma" format="2">
  <advance width="196"/>
  <unicode hex="002C"/>
  <outline>
    <contour>
      <point x="146" y="0" type="line"/>
      <point x="146" y="100" type="line"/>
      <point x="56" y="100" type="line"/>
      <point x="56" y="0" type="line"/>
      <point x="20" y="-115" type="line"/>
      <point x="81" y="-115" type="line"/>
    </contour>
  </outline>
</glyph>
<glyph name="period" format="2">
  <advance width="140"/>
  <unicode hex="002E"/>
  <outline>
    <contour>
      <point x="110" y="0" type="line"/>
      <point x="120" y="90" type="line"/>
      <point x="30" y="90" type="line"/>
      <point x="30" y="0" type="line"/>
    </contour>
  </outline>
</glyph>
<glyph name="zero" format="2">
  <advance width="532"/>
  <unicode hex="0030"/>
  <outline>
    <contour>
      <point x="123" y="703" type="line"/>
      <point x="239" y="703" type="line"/>
      <point x="459" y="703"/>
      <point x="490" y="485"/>
      <point x="490" y="294" type="curve"/>
      <point x="408" y="-3" type="line"/>
      <point x="301" y="-3" type="line"/>
      <point x="81" y="-3"/>
      <point x="42" y="245"/>
      <point x="42" y="406" type="curve"/>
    </contour>
    <contour>
      <point x="223" y="613" type="line"/>
      <point x="147" y="411" type="line"/>
      <point x="147" y="226"/>
      <point x="190" y="87"/>
      <point x="308" y="87" type="curve"/>
      <point x="308" y="87" type="line"/>
      <point x="385" y="289" type="line"/>
      <point x="385" y="461"/>
      <point x="368" y="613"/>
      <point x="227" y="613" type="curve"/>
    </contour>
  </outline>
</glyph>
<glyph name="one" format="2">
  <advance width="210"/>
  <unicode hex="0031"/>
  <outline>
    <contour>
      <point x="0" y="700" type="line"/>
      <point x="141.159" y="700" type="line"/>
      <point x="170" y="700" type="line"/>
      <point x="170" y="0" type="line"/>
      <point x="50" y="0" type="line"/>
      <point x="90" y="620" type="line"/>
      <point x="78.498" y="614.888" type="line"/>
      <point x="0" y="580" type="line"/>
    </contour>
  </outline>
</glyph>
<glyph name="two" format="2">
  <advance width="322"/>
  <unicode hex="0032"/>
  <outline>
    <contour>
      <point x="311.107" y="0" type="line"/>
      <point x="71.8378" y="0" type="line"/>
      <point x="30.002" y="0" type="line"/>
      <point x="70.4703" y="144.565"/>
      <point x="192.572" y="501.755"/>
      <point x="193.943" y="579" type="curve" smooth="yes"/>
      <point x="194.705" y="621.998"/>
      <point x="174.383" y="634.939"/>
      <point x="74" y="570.939" type="curve"/>
      <point x="74" y="690.999" type="line"/>
      <point x="199.958" y="720.999"/>
      <point x="279.964" y="702.999"/>
      <point x="280.007" y="612" type="curve" smooth="yes"/>
      <point x="280.054" y="512.744"/>
      <point x="197.468" y="264.164"/>
      <point x="149" y="79.5986" type="curve"/>
      <point x="149.303" y="79.5986" type="line"/>
      <point x="311.107" y="119.599" type="line"/>
    </contour>
  </outline>
</glyph>
<glyph name="four" format="2">
  <advance width="470"/>
  <unicode hex="0034"/>
  <outline>
    <contour>
      <point x="308" y="700" type="line"/>
      <point x="15.2343" y="231" type="line"/>
      <point x="15.2343" y="151" type="line"/>
      <point x="287.435" y="150.555" type="line"/>
      <point x="278" y="0" type="line"/>
      <point x="388" y="0" type="line"/>
      <point x="387.699" y="150.708" type="line"/>
      <point x="468.93" y="150.626" type="line"/>
      <point x="469.22" y="261.056" type="line"/>
      <point x="387.58" y="257.04" type="line"/>
      <point x="388" y="700" type="line"/>
    </contour>
    <contour>
      <point x="117.081" y="239" type="line"/>
      <point x="130.864" y="261.039" type="line"/>
      <point x="292.891" y="517.439" type="line"/>
      <point x="308" y="540" type="line"/>
      <point x="294.347" y="252" type="line"/>
    </contour>
  </outline>
</glyph>
<glyph name="five" format="2">
  <advance width="394"/>
  <unicode hex="0035"/>
  <outline>
    <contour>
      <point x="311.107" y="700.999" type="line"/>
      <point x="311.107" y="581.4" type="line"/>
      <point x="122" y="626.4" type="line"/>
      <point x="121.9" y="603.098" type="line"/>
      <point x="121" y="449.069" type="line"/>
      <point x="279.486" y="429.069"/>
      <point x="351.007" y="357.971"/>
      <point x="351.007" y="241.999" type="curve" smooth="yes"/>
      <point x="351.007" y="109.597"/>
      <point x="235.99" y="-5"/>
      <point x="46" y="-5" type="curve"/>
      <point x="46" y="115.06" type="line"/>
      <point x="146.266" y="115.06"/>
      <point x="260.943" y="155.054"/>
      <point x="260.943" y="249.999" type="curve" smooth="yes"/>
      <point x="260.943" y="332.4"/>
      <point x="169.63" y="367.069"/>
      <point x="40.6466" y="377.069" type="curve"/>
      <point x="40.9458" y="658.099" type="line"/>
      <point x="41.0021" y="700.999" type="line"/>
    </contour>
  </outline>
</glyph>
<glyph name="six" format="2">
  <advance width="443"/>
  <unicode hex="0036"/>
  <outline>
    <contour>
      <point x="36" y="337" type="line"/>
      <point x="104.697" y="445.687"/>
      <point x="156.189" y="500"/>
      <point x="231.793" y="500" type="curve" smooth="yes"/>
      <point x="352.055" y="500"/>
      <point x="401" y="364.359"/>
      <point x="401" y="265" type="curve" smooth="yes"/>
      <point x="401" y="175.743"/>
      <point x="372.023" y="-8"/>
      <point x="222" y="-8" type="curve" smooth="yes"/>
      <point x="35.0069" y="-8"/>
      <point x="36" y="249"/>
      <point x="36" y="337" type="curve"/>
      <point x="135" y="700" type="line"/>
      <point x="256.203" y="700" type="line"/>
      <point x="123" y="332" type="line"/>
      <point x="123" y="237"/>
      <point x="168" y="75"/>
      <point x="234" y="75" type="curve" smooth="yes"/>
      <point x="290" y="75"/>
      <point x="301.95" y="167.743"/>
      <point x="301.95" y="213" type="curve" smooth="yes"/>
      <point x="301.95" y="335.349"/>
      <point x="252.31" y="407.68"/>
      <point x="200.788" y="407.354" type="curve" smooth="yes"/>
      <point x="159.054" y="407.089"/>
      <point x="139.032" y="371.94"/>
      <point x="123" y="332" type="curve"/>
    </contour>
  </outline>
</glyph>
<glyph name="seven" format="2">
  <advance width="290"/>
  <unicode hex="0037"/>
  <outline>
    <contour>
      <point x="0" y="700" type="line"/>
      <point x="220.286" y="700" type="line"/>
      <point x="250" y="700" type="line"/>
      <point x="140" y="0" type="line"/>
      <point x="19" y="0" type="line"/>
      <point x="167.498" y="623.528" type="line"/>
      <point x="150.247" y="620" type="line"/>
      <point x="0" y="580" type="line"/>
    </contour>
  </outline>
</glyph>
<glyph name="eight" format="2">
  <advance width="432"/>
  <unicode hex="0038"/>
  <outline>
    <contour>
      <point x="57.6928" y="549" type="curve" smooth="yes"/>
      <point x="57.6928" y="643.666"/>
      <point x="128.331" y="714.411"/>
      <point x="214" y="713.981" type="curve" smooth="yes"/>
      <point x="303.449" y="713.532"/>
      <point x="374" y="643.75"/>
      <point x="374" y="549" type="curve" smooth="yes"/>
      <point x="374" y="455.734"/>
      <point x="331.201" y="415.174"/>
      <point x="279.419" y="373.787" type="curve"/>
      <point x="326.868" y="344.487"/>
      <point x="396.243" y="278.8"/>
      <point x="396.243" y="178.787" type="curve" smooth="yes"/>
      <point x="396.243" y="73.9478"/>
      <point x="330.643" y="-13"/>
      <point x="219" y="-13" type="curve" smooth="yes"/>
      <point x="101.05" y="-13"/>
      <point x="35.6928" y="73.6657"/>
      <point x="36" y="178.787" type="curve" smooth="yes"/>
      <point x="36.3058" y="283.436"/>
      <point x="114.825" y="344.487"/>
      <point x="152.366" y="373.787" type="curve"/>
      <point x="110.334" y="405.031"/>
      <point x="57.6928" y="455.734"/>
    </contour>
    <contour>
      <point x="167.681" y="549.011" type="curve" smooth="yes"/>
      <point x="167.681" y="505.734"/>
      <point x="176.264" y="466.083"/>
      <point x="214.559" y="425.088" type="curve"/>
      <point x="255.429" y="466.083"/>
      <point x="264.012" y="505.734"/>
      <point x="264.012" y="549.011" type="curve" smooth="yes"/>
      <point x="264.012" y="577.855"/>
      <point x="253.432" y="640"/>
      <point x="214" y="640" type="curve" smooth="yes"/>
      <point x="178.26" y="640"/>
      <point x="167.681" y="577.855"/>
    </contour>
    <contour>
      <point x="145.988" y="173.776" type="curve" smooth="yes"/>
      <point x="145.988" y="124.764"/>
      <point x="166.489" y="61"/>
      <point x="216" y="61" type="curve" smooth="yes"/>
      <point x="266.204" y="61"/>
      <point x="285.704" y="122.764"/>
      <point x="285.704" y="173.776" type="curve" smooth="yes"/>
      <point x="285.704" y="222.054"/>
      <point x="252.549" y="285.142"/>
      <point x="216.557" y="321.627" type="curve"/>
      <point x="178.517" y="287.142"/>
      <point x="145.988" y="222.053"/>
    </contour>
  </outline>
</glyph>
<glyph name="nine" format="2">
  <advance width="443"/>
  <unicode hex="0039"/>
  <outline>
    <contour>
      <point x="407.007" y="360" type="line"/>
      <point x="338.31" y="251.313"/>
      <point x="286.818" y="197"/>
      <point x="211.214" y="197" type="curve" smooth="yes"/>
      <point x="90.9518" y="197"/>
      <point x="42.0069" y="332.641"/>
      <point x="42.0069" y="432" type="curve" smooth="yes"/>
      <point x="42.0069" y="521.257"/>
      <point x="70.9838" y="705"/>
      <point x="221.007" y="705" type="curve" smooth="yes"/>
      <point x="408" y="705"/>
      <point x="407.007" y="448"/>
      <point x="407.007" y="360" type="curve"/>
      <point x="308.007" y="-3" type="line"/>
      <point x="186.804" y="-3" type="line"/>
      <point x="320.007" y="365" type="line"/>
      <point x="320.007" y="460"/>
      <point x="275.007" y="622"/>
      <point x="209.007" y="622" type="curve" smooth="yes"/>
      <point x="153.007" y="622"/>
      <point x="141.057" y="529.257"/>
      <point x="141.057" y="484" type="curve" smooth="yes"/>
      <point x="141.057" y="361.651"/>
      <point x="190.697" y="289.32"/>
      <point x="242.219" y="289.646" type="curve" smooth="yes"/>
      <point x="283.952" y="289.911"/>
      <point x="303.975" y="325.06"/>
      <point x="320.007" y="365" type="curve"/>
    </contour>
  </outline>
</glyph>
<glyph name="colon" format="2">
  <advance width="240"/>
  <unicode hex="003A"/>
  <outline>
    <contour>
      <point x="155" y="85" type="line"/>
      <point x="165" y="175" type="line"/>
      <point x="75" y="175" type="line"/>
      <point x="75" y="85" type="line"/>
    </contour>
    <contour>
      <point x="155" y="247" type="line"/>
      <point x="165" y="337" type="line"/>
      <point x="75" y="337" type="line"/>
      <point x="75" y="247" type="line"/>
    </contour>
  </outline>
</glyph>
<glyph name="semicolon" format="2">
  <advance width="186"/>
  <unicode hex="003B"/>
  <outline>
    <contour>
      <point x="136" y="0" type="line"/>
      <point x="136" y="90" type="line"/>
      <point x="56" y="90" type="line"/>
      <point x="56" y="0" type="line"/>
      <point x="20" y="-115" type="line"/>
      <point x="71" y="-115" type="line"/>
    </contour>
    <contour>
      <point x="126" y="140" type="line"/>
      <point x="136" y="220" type="line"/>
      <point x="56" y="220" type="line"/>
      <point x="56" y="140" type="line"/>
    </contour>
  </outline>
</glyph>
<glyph name="question" format="2">
  <advance width="381"/>
  <unicode hex="003F"/>
  <outline>
    <contour>
      <point x="80" y="180" type="line"/>
      <point x="80" y="337.599" type="line"/>
      <point x="130.8" y="404.661"/>
      <point x="209.155" y="542.603"/>
      <point x="210.252" y="613.852" type="curve"/>
      <point x="60" y="579.94" type="line"/>
      <point x="60" y="700" type="line"/>
      <point x="229.958" y="700"/>
      <point x="299.956" y="701"/>
      <point x="300.008" y="599" type="curve" smooth="yes"/>
      <point x="300.053" y="509.745"/>
      <point x="205.8" y="378.662"/>
      <point x="160" y="311.599" type="curve"/>
      <point x="160" y="180.001" type="line"/>
    </contour>
    <contour>
      <point x="159" y="0" type="line"/>
      <point x="159" y="80" type="line"/>
      <point x="79" y="80" type="line"/>
      <point x="79" y="0" type="line"/>
    </contour>
  </outline>
</glyph>
<glyph name="A" format="2">
  <advance width="609"/>
  <unicode hex="0041"/>
  <outline>
    <contour>
      <point x="253" y="700" type="line"/>
      <point x="20" y="0" type="line"/>
      <point x="140" y="0" type="line"/>
      <point x="197" y="201" type="line"/>
      <point x="423" y="161" type="line"/>
      <point x="469" y="0" type="line"/>
      <point x="589" y="0" type="line"/>
      <point x="363" y="700" type="line"/>
    </contour>
    <contour>
      <point x="216" y="281" type="line"/>
      <point x="308" y="615" type="line"/>
      <point x="395" y="281" type="line"/>
    </contour>
  </outline>
</glyph>
<glyph name="B" format="2">
  <advance width="523"/>
  <unicode hex="0042"/>
  <outline>
    <contour>
      <point x="40" y="700" type="line"/>
      <point x="140" y="721"/>
      <point x="243" y="721"/>
      <point x="343" y="700" type="curve"/>
      <point x="431" y="570" type="line"/>
      <point x="431" y="482"/>
      <point x="423" y="426"/>
      <point x="362" y="393" type="curve"/>
      <point x="491" y="260" type="line"/>
      <point x="491" y="110"/>
      <point x="473" y="0"/>
      <point x="253" y="0" type="curve" smooth="yes"/>
      <point x="40" y="0" type="line"/>
    </contour>
    <contour>
      <point x="139" y="444" type="line"/>
      <point x="232" y="434" type="line"/>
      <point x="280" y="435"/>
      <point x="356" y="440"/>
      <point x="350" y="536" type="curve"/>
      <point x="232" y="635" type="line"/>
      <point x="160" y="638" type="line"/>
    </contour>
    <contour>
      <point x="123" y="90" type="line"/>
      <point x="253" y="90" type="line" smooth="yes"/>
      <point x="327" y="90"/>
      <point x="401" y="110"/>
      <point x="401" y="221" type="curve"/>
      <point x="240" y="354" type="line"/>
      <point x="137" y="354" type="line"/>
    </contour>
  </outline>
</glyph>
<glyph name="C" format="2">
  <advance width="526"/>
  <unicode hex="0043"/>
  <outline>
    <contour>
      <point x="466" y="0" type="line"/>
      <point x="281" y="0" type="line"/>
      <point x="41" y="0"/>
      <point x="43" y="239"/>
      <point x="43" y="389" type="curve"/>
      <point x="121" y="690" type="line"/>
      <point x="239" y="722"/>
      <point x="368" y="722"/>
      <point x="494" y="690" type="curve"/>
      <point x="494" y="569" type="line"/>
      <point x="200" y="633" type="line"/>
      <point x="133" y="388" type="line"/>
      <point x="133" y="224"/>
      <point x="148" y="90"/>
      <point x="281" y="90" type="curve"/>
      <point x="466" y="110" type="line"/>
    </contour>
  </outline>
</glyph>
<glyph name="D" format="2">
  <advance width="534"/>
  <unicode hex="0044"/>
  <outline>
    <contour>
      <point x="40" y="700" type="line"/>
      <point x="166" y="734"/>
      <point x="295" y="734"/>
      <point x="413" y="700" type="curve"/>
      <point x="491" y="389" type="line"/>
      <point x="491" y="229"/>
      <point x="493" y="0"/>
      <point x="253" y="0" type="curve" smooth="yes"/>
      <point x="40" y="0" type="line"/>
    </contour>
    <contour>
      <point x="120" y="111" type="line"/>
      <point x="253" y="90" type="line"/>
      <point x="395" y="90"/>
      <point x="399" y="234"/>
      <point x="399" y="388" type="curve"/>
      <point x="305" y="633" type="line"/>
      <point x="160" y="634" type="line"/>
    </contour>
  </outline>
</glyph>
<glyph name="E" format="2">
  <advance width="452"/>
  <unicode hex="0045"/>
  <outline>
    <contour>
      <point x="40" y="700" type="line"/>
      <point x="410" y="700" type="line"/>
      <point x="410" y="580" type="line"/>
      <point x="120" y="621" type="line"/>
      <point x="120" y="587.91" type="line"/>
      <point x="120" y="382" type="line"/>
      <point x="350" y="382" type="line"/>
      <point x="350" y="272" type="line"/>
      <point x="120" y="303" type="line"/>
      <point x="120" y="260.683" type="line"/>
      <point x="120" y="122.509" type="line"/>
      <point x="120" y="79" type="line"/>
      <point x="420" y="120" type="line"/>
      <point x="420" y="0" type="line"/>
      <point x="40" y="0" type="line"/>
      <point x="40" y="122.507" type="line"/>
      <point x="40" y="591.23" type="line"/>
    </contour>
  </outline>
</glyph>
<glyph name="F" format="2">
  <advance width="442"/>
  <unicode hex="0046"/>
  <outline>
    <contour>
      <point x="40" y="700" type="line"/>
      <point x="410" y="700" type="line"/>
      <point x="410" y="580" type="line"/>
      <point x="120" y="622" type="line"/>
      <point x="120" y="592.008" type="line"/>
      <point x="120" y="382" type="line"/>
      <point x="350" y="382" type="line"/>
      <point x="350" y="272" type="line"/>
      <point x="119" y="305" type="line"/>
      <point x="124.738" y="262.312" type="line"/>
      <point x="160" y="0" type="line"/>
      <point x="40" y="0" type="line"/>
      <point x="40" y="592.009" type="line"/>
    </contour>
  </outline>
</glyph>
<glyph name="G" format="2">
  <advance width="562"/>
  <unicode hex="0047"/>
  <outline>
    <contour>
      <point x="465" y="0" type="line"/>
      <point x="280" y="0" type="line" smooth="yes"/>
      <point x="60" y="0"/>
      <point x="42" y="239"/>
      <point x="42" y="389" type="curve"/>
      <point x="120" y="700" type="line"/>
      <point x="238" y="741"/>
      <point x="367" y="741"/>
      <point x="493" y="700" type="curve"/>
      <point x="493" y="579" type="line"/>
      <point x="200" y="646" type="line"/>
      <point x="132" y="388" type="line"/>
      <point x="132" y="224"/>
      <point x="167" y="90"/>
      <point x="280" y="90" type="curve" smooth="yes"/>
      <point x="366" y="90" type="line"/>
      <point x="418.212" y="247.36" type="line"/>
      <point x="438" y="307" type="line"/>
      <point x="245" y="257" type="line"/>
      <point x="245" y="368" type="line"/>
      <point x="351" y="389"/>
      <point x="409" y="390"/>
      <point x="527" y="364" type="curve"/>
      <point x="505.649" y="238.649" type="line"/>
    </contour>
  </outline>
</glyph>
<glyph name="H" format="2">
  <advance width="586"/>
  <unicode hex="0048"/>
  <outline>
    <contour>
      <point x="40" y="700" type="line"/>
      <point x="160" y="700" type="line"/>
      <point x="149.583" y="500" type="line"/>
      <point x="145" y="412" type="line"/>
      <point x="426" y="412" type="line"/>
      <point x="426" y="500" type="line"/>
      <point x="426" y="700" type="line"/>
      <point x="546" y="700" type="line"/>
      <point x="506" y="0" type="line"/>
      <point x="426" y="0" type="line"/>
      <point x="426" y="299" type="line"/>
      <point x="369.337" y="305.561" type="line"/>
      <point x="200.166" y="325.149" type="line"/>
      <point x="141" y="332" type="line"/>
      <point x="120" y="0" type="line"/>
      <point x="40" y="0" type="line"/>
    </contour>
  </outline>
</glyph>
<glyph name="J" format="2">
  <advance width="416"/>
  <unicode hex="004A"/>
  <outline>
    <contour>
      <point x="256" y="700" type="line"/>
      <point x="376" y="700" type="line"/>
      <point x="366" y="0" type="line"/>
      <point x="305.336" y="-17.6288"/>
      <point x="248.436" y="-26.1172"/>
      <point x="190.142" y="-25.4651" type="curve" smooth="yes"/>
      <point x="136.007" y="-24.8595"/>
      <point x="80.6697" y="-16.3711"/>
      <point x="20" y="0" type="curve"/>
      <point x="21" y="121" type="line"/>
      <point x="156.633" y="87.3468" type="line"/>
      <point x="287" y="55" type="line"/>
    </contour>
  </outline>
</glyph>
<glyph name="K" format="2">
  <advance width="504"/>
  <unicode hex="004B"/>
  <outline>
    <contour>
      <point x="122" y="0" type="line"/>
      <point x="142" y="258" type="line"/>
      <point x="184" y="319" type="line"/>
      <point x="347" y="0" type="line"/>
      <point x="483" y="0" type="line"/>
      <point x="235" y="378" type="line"/>
      <point x="484" y="700" type="line"/>
      <point x="357" y="700" type="line"/>
      <point x="144" y="383" type="line"/>
      <point x="160" y="700" type="line"/>
      <point x="40" y="700" type="line"/>
      <point x="40" y="0" type="line"/>
    </contour>
  </outline>
</glyph>
<glyph name="L" format="2">
  <advance width="440"/>
  <unicode hex="004C"/>
  <outline>
    <contour>
      <point x="40" y="700" type="line"/>
      <point x="160" y="700" type="line"/>
      <point x="121.304" y="128.78" type="line"/>
      <point x="118" y="80" type="line"/>
      <point x="420" y="110" type="line"/>
      <point x="420" y="0" type="line"/>
      <point x="40" y="0" type="line"/>
      <point x="40" y="110" type="line"/>
    </contour>
  </outline>
</glyph>
<glyph name="M" format="2">
  <advance width="667"/>
  <unicode hex="004D"/>
  <outline>
    <contour>
      <point x="351" y="200" type="line"/>
      <point x="271" y="200" type="line"/>
      <point x="105" y="561" type="line"/>
      <point x="125" y="0" type="line"/>
      <point x="35" y="0" type="line"/>
      <point x="35" y="700" type="line"/>
      <point x="175" y="700" type="line"/>
      <point x="311" y="290" type="line"/>
      <point x="497" y="700" type="line"/>
      <point x="627" y="700" type="line"/>
      <point x="617" y="0" type="line"/>
      <point x="537" y="0" type="line"/>
      <point x="517" y="500" type="line"/>
    </contour>
  </outline>
</glyph>
<glyph name="N" format="2">
  <advance width="546"/>
  <unicode hex="004E"/>
  <outline>
    <contour>
      <point x="391" y="700" type="line"/>
      <point x="511" y="700" type="line"/>
      <point x="481" y="0" type="line"/>
      <point x="401" y="0" type="line"/>
      <point x="226.488" y="328.842" type="line"/>
      <point x="107" y="554" type="line"/>
      <point x="125" y="0" type="line"/>
      <point x="45" y="0" type="line"/>
      <point x="35" y="700" type="line"/>
      <point x="165" y="700" type="line"/>
      <point x="301.497" y="383.306" type="line"/>
      <point x="418" y="113" type="line"/>
    </contour>
  </outline>
</glyph>
<glyph name="P" format="2">
  <advance width="523"/>
  <unicode hex="0050"/>
  <outline>
    <contour>
      <point x="142" y="404" type="line"/>
      <point x="292" y="384" type="line"/>
      <point x="369" y="385"/>
      <point x="395" y="412"/>
      <point x="395" y="503" type="curve"/>
      <point x="277" y="620" type="line"/>
      <point x="160" y="620" type="line"/>
    </contour>
    <contour>
      <point x="291" y="304" type="curve"/>
      <point x="138" y="304" type="line"/>
      <point x="120" y="0" type="line"/>
      <point x="40" y="0" type="line"/>
      <point x="40" y="700" type="line"/>
      <point x="363" y="700" type="line"/>
      <point x="481" y="530" type="line"/>
      <point x="481" y="413"/>
      <point x="460" y="304"/>
    </contour>
  </outline>
</glyph>
<glyph name="Q" format="2">
  <advance width="712"/>
  <unicode hex="0051"/>
  <outline>
    <contour>
      <point x="306" y="301" type="line"/>
      <point x="416" y="301" type="line"/>
      <point x="584" y="79" type="line"/>
      <point x="670" y="120" type="line"/>
      <point x="670" y="0" type="line"/>
      <point x="573" y="0" type="line"/>
    </contour>
    <contour>
      <point x="123" y="703" type="line"/>
      <point x="319" y="703" type="line"/>
      <point x="539" y="703"/>
      <point x="570" y="485"/>
      <point x="570" y="294" type="curve"/>
      <point x="488" y="-3" type="line"/>
      <point x="301" y="-3" type="line"/>
      <point x="81" y="-3"/>
      <point x="42" y="245"/>
      <point x="42" y="406" type="curve"/>
    </contour>
    <contour>
      <point x="223" y="613" type="line"/>
      <point x="147" y="411" type="line"/>
      <point x="147" y="226"/>
      <point x="175" y="87"/>
      <point x="345" y="87" type="curve"/>
      <point x="388" y="87" type="line"/>
      <point x="465" y="289" type="line"/>
      <point x="465" y="461"/>
      <point x="448" y="613"/>
      <point x="257" y="613" type="curve"/>
    </contour>
  </outline>
</glyph>
<glyph name="R" format="2">
  <advance width="522"/>
  <unicode hex="0052"/>
  <outline>
    <contour>
      <point x="301" y="304" type="curve"/>
      <point x="301" y="304" type="line"/>
      <point x="502" y="0" type="line"/>
      <point x="365" y="0" type="line"/>
      <point x="210" y="304" type="line"/>
      <point x="138" y="304" type="line"/>
      <point x="120" y="0" type="line"/>
      <point x="40" y="0" type="line"/>
      <point x="40" y="700" type="line"/>
      <point x="363" y="700" type="line"/>
      <point x="481" y="530" type="line"/>
      <point x="481" y="415"/>
      <point x="461" y="309"/>
    </contour>
    <contour>
      <point x="142" y="404" type="line"/>
      <point x="292" y="384" type="line"/>
      <point x="369" y="385"/>
      <point x="395" y="412"/>
      <point x="395" y="503" type="curve"/>
      <point x="277" y="620" type="line"/>
      <point x="160" y="620" type="line"/>
    </contour>
  </outline>
</glyph>
<glyph name="S" format="2">
  <advance width="547"/>
  <unicode hex="0053"/>
  <outline>
    <contour>
      <point x="35" y="388" type="line"/>
      <point x="117" y="700" type="line"/>
      <point x="234" y="729"/>
      <point x="335" y="729"/>
      <point x="461" y="700" type="curve"/>
      <point x="461" y="589" type="line"/>
      <point x="221" y="642" type="line"/>
      <point x="128" y="437" type="line"/>
      <point x="512" y="320" type="line"/>
      <point x="431" y="0" type="line"/>
      <point x="314" y="-31"/>
      <point x="161" y="-31"/>
      <point x="35" y="0" type="curve"/>
      <point x="36" y="121" type="line"/>
      <point x="329" y="59" type="line"/>
      <point x="411" y="234" type="line"/>
    </contour>
  </outline>
</glyph>
<glyph name="T" format="2">
  <advance width="440"/>
  <unicode hex="0054"/>
  <outline>
    <contour>
      <point x="20" y="580" type="line"/>
      <point x="20" y="700" type="line"/>
      <point x="420" y="700" type="line"/>
      <point x="420" y="580" type="line"/>
      <point x="260" y="621" type="line"/>
      <point x="280" y="0" type="line"/>
      <point x="160" y="0" type="line"/>
      <point x="180" y="621" type="line"/>
    </contour>
  </outline>
</glyph>
<glyph name="U" format="2">
  <advance width="601"/>
  <unicode hex="0055"/>
  <outline>
    <contour>
      <point x="566" y="700" type="line"/>
      <point x="566" y="303" type="line"/>
      <point x="486" y="-3" type="line"/>
      <point x="276" y="-3" type="line"/>
      <point x="59" y="-3"/>
      <point x="40" y="251"/>
      <point x="40" y="399" type="curve"/>
      <point x="40" y="700" type="line"/>
      <point x="140" y="700" type="line"/>
      <point x="140" y="400" type="line"/>
      <point x="140" y="218"/>
      <point x="183" y="87"/>
      <point x="276" y="87" type="curve"/>
      <point x="390" y="87" type="line"/>
      <point x="466" y="301" type="line"/>
      <point x="466" y="700" type="line"/>
    </contour>
  </outline>
</glyph>
<glyph name="V" format="2">
  <advance width="599"/>
  <unicode hex="0056"/>
  <outline>
    <contour>
      <point x="253" y="0" type="line"/>
      <point x="343" y="0" type="line"/>
      <point x="579" y="700" type="line"/>
      <point x="459" y="700" type="line"/>
      <point x="299" y="92" type="line"/>
      <point x="140" y="700" type="line"/>
      <point x="20" y="700" type="line"/>
    </contour>
  </outline>
</glyph>
<glyph name="W" format="2">
  <advance width="858"/>
  <unicode hex="0057"/>
  <outline>
    <contour>
      <point x="208" y="0" type="line"/>
      <point x="288" y="0" type="line"/>
      <point x="429" y="440" type="line"/>
      <point x="577" y="0" type="line"/>
      <point x="657" y="0" type="line"/>
      <point x="838" y="700" type="line"/>
      <point x="717" y="700" type="line"/>
      <point x="615" y="110" type="line"/>
      <point x="484" y="670" type="line"/>
      <point x="374" y="670" type="line"/>
      <point x="248" y="112" type="line"/>
      <point x="141" y="700" type="line"/>
      <point x="20" y="700" type="line"/>
    </contour>
  </outline>
</glyph>
<glyph name="X" format="2">
  <advance width="577"/>
  <unicode hex="0058"/>
  <outline>
    <contour>
      <point x="459" y="0" type="line"/>
      <point x="543" y="0" type="line"/>
      <point x="338.115" y="360.351" type="line"/>
      <point x="557" y="700" type="line"/>
      <point x="433" y="700" type="line"/>
      <point x="294.347" y="437.329" type="line"/>
      <point x="145" y="700" type="line"/>
      <point x="20" y="700" type="line"/>
      <point x="239.744" y="349.612" type="line"/>
      <point x="44" y="0" type="line"/>
      <point x="128" y="0" type="line"/>
      <point x="283.531" y="279.791" type="line"/>
    </contour>
  </outline>
</glyph>
<glyph name="Y" format="2">
  <advance width="503"/>
  <unicode hex="0059"/>
  <outline>
    <contour>
      <point x="132" y="0" type="line"/>
      <point x="212" y="0" type="line"/>
      <point x="483" y="700" type="line"/>
      <point x="361" y="700" type="line"/>
      <point x="263" y="363" type="line"/>
      <point x="143" y="700" type="line"/>
      <point x="20" y="700" type="line"/>
      <point x="218" y="254" type="line"/>
    </contour>
  </outline>
</glyph>
<glyph name="Z" format="2">
  <advance width="499"/>
  <unicode hex="005A"/>
  <outline>
    <contour>
      <point x="467" y="700" type="curve"/>
      <point x="295.346" y="345.064" type="line"/>
      <point x="157" y="59" type="line"/>
      <point x="469" y="119" type="line"/>
      <point x="469" y="0" type="line"/>
      <point x="344" y="-29"/>
      <point x="147" y="-29"/>
      <point x="30" y="0" type="curve"/>
      <point x="191.848" y="359.133" type="line"/>
      <point x="310.751" y="631.85" type="line"/>
      <point x="81" y="590" type="line"/>
      <point x="81" y="700" type="line"/>
      <point x="207" y="729"/>
      <point x="350" y="729"/>
    </contour>
  </outline>
</glyph>
<glyph name="bracketleft" format="2">
  <advance width="270"/>
  <unicode hex="005B"/>
  <outline>
    <contour>
      <point x="80" y="820" type="line"/>
      <point x="80" y="769.557" type="line"/>
      <point x="80" y="-37.3397" type="line"/>
      <point x="80" y="-87" type="line"/>
      <point x="260" y="-87" type="line"/>
      <point x="260" y="23" type="line"/>
      <point x="183.334" y="0" type="line"/>
      <point x="160" y="-7" type="line"/>
      <point x="160" y="740" type="line"/>
      <point x="193.633" y="729.91" type="line"/>
      <point x="260" y="710" type="line"/>
      <point x="260" y="820" type="line"/>
    </contour>
  </outline>
</glyph>
<glyph name="backslash" format="2">
  <advance width="451"/>
  <unicode hex="005C"/>
  <outline>
    <contour>
      <point x="370.348" y="0" type="line"/>
      <point x="289.348" y="0" type="line"/>
      <point x="110" y="700" type="line"/>
      <point x="231" y="700" type="line"/>
    </contour>
  </outline>
</glyph>
<glyph name="bracketright" format="2">
  <advance width="270"/>
  <unicode hex="005D"/>
  <outline>
    <contour>
      <point x="190" y="820" type="line"/>
      <point x="10" y="820" type="line"/>
      <point x="10" y="710" type="line"/>
      <point x="70.9735" y="728.292" type="line"/>
      <point x="110" y="740" type="line"/>
      <point x="110" y="-7" type="line"/>
      <point x="76.3767" y="3.08699" type="line"/>
      <point x="10" y="23" type="line"/>
      <point x="10" y="-87" type="line"/>
      <point x="190" y="-87" type="line"/>
      <point x="190" y="-36.5667" type="line"/>
      <point x="190" y="771.426" type="line"/>
    </contour>
  </outline>
</glyph>
<glyph name="grave" format="2">
  <advance width="207"/>
  <unicode hex="0060"/>
  <outline>
    <contour>
      <point x="40" y="630" type="line"/>
      <point x="97" y="565" type="line"/>
      <point x="177" y="565" type="line"/>
      <point x="140" y="640" type="line"/>
      <point x="140" y="700" type="line"/>
      <point x="30" y="700" type="line"/>
    </contour>
  </outline>
</glyph>
<glyph name="a" format="2">
  <advance width="569"/>
  <unicode hex="0061"/>
  <outline>
    <contour>
      <point x="534" y="500" type="line"/>
      <point x="424" y="500" type="line"/>
      <point x="413" y="84" type="line"/>
      <point x="365" y="500" type="line"/>
      <point x="280" y="538"/>
      <point x="186" y="538"/>
      <point x="95" y="500" type="curve"/>
      <point x="37" y="285" type="line"/>
      <point x="37" y="178"/>
      <point x="69" y="0"/>
      <point x="207" y="0" type="curve" smooth="yes"/>
      <point x="314" y="0"/>
      <point x="344" y="107"/>
      <point x="356" y="158" type="curve"/>
      <point x="329" y="291" type="line"/>
      <point x="303" y="158"/>
      <point x="285" y="71"/>
      <point x="210" y="71" type="curve" smooth="yes"/>
      <point x="139" y="71"/>
      <point x="122" y="192"/>
      <point x="122" y="277" type="curve"/>
      <point x="190" y="448" type="line"/>
      <point x="255" y="458" type="line"/>
      <point x="357" y="0" type="line"/>
      <point x="477" y="0" type="line"/>
    </contour>
  </outline>
</glyph>
<glyph name="b" format="2">
  <advance width="597"/>
  <unicode hex="0062"/>
  <outline>
    <contour>
      <point x="35" y="750" type="line"/>
      <point x="100" y="0" type="line"/>
      <point x="220" y="0" type="line"/>
      <point x="322" y="458" type="line"/>
      <point x="407" y="448" type="line"/>
      <point x="475" y="277" type="line"/>
      <point x="475" y="192"/>
      <point x="458" y="71"/>
      <point x="377" y="71" type="curve" smooth="yes"/>
      <point x="302" y="71"/>
      <point x="274" y="158"/>
      <point x="248" y="291" type="curve"/>
      <point x="221" y="158" type="line"/>
      <point x="233" y="107"/>
      <point x="274" y="0"/>
      <point x="380" y="0" type="curve" smooth="yes"/>
      <point x="528" y="0"/>
      <point x="560" y="178"/>
      <point x="560" y="285" type="curve"/>
      <point x="502" y="500" type="line"/>
      <point x="411" y="538"/>
      <point x="297" y="538"/>
      <point x="212" y="500" type="curve"/>
      <point x="164" y="84" type="line"/>
      <point x="145" y="750" type="line"/>
    </contour>
  </outline>
</glyph>
<glyph name="c" format="2">
  <advance width="362"/>
  <unicode hex="0063"/>
  <outline>
    <contour>
      <point x="330" y="-5" type="line"/>
      <point x="283.47" y="-5"/>
      <point x="275.53" y="-5"/>
      <point x="229" y="-5" type="curve"/>
      <point x="39" y="-5"/>
      <point x="37" y="172"/>
      <point x="37" y="279" type="curve"/>
      <point x="95" y="500" type="line"/>
      <point x="181" y="527"/>
      <point x="253" y="527"/>
      <point x="342" y="500" type="curve"/>
      <point x="342" y="391" type="line"/>
      <point x="183" y="455" type="line"/>
      <point x="122" y="279" type="line"/>
      <point x="122" y="167"/>
      <point x="123" y="75"/>
      <point x="236" y="75" type="curve"/>
      <point x="330" y="105" type="line"/>
    </contour>
  </outline>
</glyph>
<glyph name="d" format="2">
  <advance width="597"/>
  <unicode hex="0064"/>
  <outline>
    <contour>
      <point x="562" y="750" type="line"/>
      <point x="452" y="750" type="line"/>
      <point x="433" y="84" type="line"/>
      <point x="385" y="500" type="line"/>
      <point x="300" y="538"/>
      <point x="186" y="538"/>
      <point x="95" y="500" type="curve"/>
      <point x="37" y="285" type="line"/>
      <point x="37" y="178"/>
      <point x="69" y="0"/>
      <point x="217" y="0" type="curve" smooth="yes"/>
      <point x="323" y="0"/>
      <point x="364" y="107"/>
      <point x="376" y="158" type="curve"/>
      <point x="349" y="291" type="line"/>
      <point x="323" y="158"/>
      <point x="295" y="71"/>
      <point x="220" y="71" type="curve" smooth="yes"/>
      <point x="139" y="71"/>
      <point x="122" y="192"/>
      <point x="122" y="277" type="curve"/>
      <point x="190" y="448" type="line"/>
      <point x="275" y="458" type="line"/>
      <point x="377" y="0" type="line"/>
      <point x="497" y="0" type="line"/>
    </contour>
  </outline>
</glyph>
<glyph name="e" format="2">
  <advance width="424"/>
  <unicode hex="0065"/>
  <outline>
    <contour>
      <point x="360" y="-5" type="line"/>
      <point x="209" y="-5" type="line"/>
      <point x="39" y="-5"/>
      <point x="37" y="172"/>
      <point x="37" y="279" type="curve"/>
      <point x="95" y="507" type="line"/>
      <point x="218" y="507" type="line"/>
      <point x="377" y="507"/>
      <point x="399" y="349"/>
      <point x="399" y="201" type="curve"/>
      <point x="399" y="199" type="line"/>
      <point x="112" y="199" type="line"/>
      <point x="112" y="279" type="line"/>
      <point x="311" y="279" type="line"/>
      <point x="311" y="325"/>
      <point x="294" y="432"/>
      <point x="197" y="432" type="curve"/>
      <point x="182" y="432" type="line"/>
      <point x="122" y="279" type="line"/>
      <point x="122" y="167"/>
      <point x="123" y="75"/>
      <point x="216" y="75" type="curve"/>
      <point x="360" y="105" type="line"/>
    </contour>
  </outline>
</glyph>
<glyph name="f" format="2">
  <advance width="357"/>
  <unicode hex="0066"/>
  <outline>
    <contour>
      <point x="33" y="0" type="line"/>
      <point x="153" y="0" type="line"/>
      <point x="121.568" y="449.03" type="line"/>
      <point x="213.8" y="423.95" type="line"/>
      <point x="325" y="391" type="line"/>
      <point x="325" y="500" type="line"/>
      <point x="280.75" y="509.25"/>
      <point x="256.15" y="512.95"/>
      <point x="219.1" y="513.25" type="curve" smooth="yes"/>
      <point x="190.6" y="513.5"/>
      <point x="171.7" y="509.75"/>
      <point x="118" y="500" type="curve"/>
      <point x="147.186" y="682.415" type="line"/>
      <point x="179.75" y="676.7" type="line"/>
      <point x="357" y="641" type="line"/>
      <point x="357" y="750" type="line"/>
      <point x="306.1" y="761.65"/>
      <point x="255.05" y="768"/>
      <point x="192.65" y="768.25" type="curve" smooth="yes"/>
      <point x="134.35" y="768.45"/>
      <point x="102.85" y="762.05"/>
      <point x="47" y="750" type="curve"/>
      <point x="33" y="500" type="line"/>
    </contour>
  </outline>
</glyph>
<glyph name="g" format="2">
  <advance width="589"/>
  <unicode hex="0067"/>
  <outline>
    <contour>
      <point x="554" y="500" type="line"/>
      <point x="444" y="500" type="line"/>
      <point x="433" y="84" type="line"/>
      <point x="385" y="500" type="line"/>
      <point x="300" y="538"/>
      <point x="186" y="538"/>
      <point x="95" y="500" type="curve"/>
      <point x="37" y="284" type="line"/>
      <point x="37" y="177"/>
      <point x="69" y="0"/>
      <point x="217" y="0" type="curve" smooth="yes"/>
      <point x="324" y="0"/>
      <point x="365" y="106"/>
      <point x="376" y="158" type="curve"/>
      <point x="349" y="291" type="line"/>
      <point x="323" y="158"/>
      <point x="295" y="71"/>
      <point x="220" y="71" type="curve" smooth="yes"/>
      <point x="139" y="71"/>
      <point x="122" y="192"/>
      <point x="122" y="277" type="curve"/>
      <point x="190" y="448" type="line"/>
      <point x="275" y="458" type="line"/>
      <point x="377" y="0" type="line"/>
      <point x="497" y="0" type="line"/>
    </contour>
    <contour>
      <point x="356" y="-226" type="curve"/>
      <point x="497" y="0" type="line"/>
      <point x="377" y="0" type="line"/>
      <point x="299" y="-169" type="line"/>
      <point x="69" y="-117" type="line"/>
      <point x="69" y="-226" type="line"/>
      <point x="178" y="-257"/>
      <point x="250" y="-257"/>
    </contour>
  </outline>
</glyph>
<glyph name="h" format="2">
  <advance width="519"/>
  <unicode hex="0068"/>
  <outline>
    <contour>
      <point x="10" y="750" type="line"/>
      <point x="87" y="0" type="line"/>
      <point x="207" y="0" type="line"/>
      <point x="307" y="448" type="line"/>
      <point x="369" y="428" type="line"/>
      <point x="361" y="284" type="line"/>
      <point x="345" y="0" type="line"/>
      <point x="465" y="0" type="line"/>
      <point x="446" y="284" type="line"/>
      <point x="484" y="500" type="line"/>
      <point x="375" y="530"/>
      <point x="303" y="530"/>
      <point x="197" y="500" type="curve"/>
      <point x="151" y="84" type="line"/>
      <point x="130" y="750" type="line"/>
    </contour>
  </outline>
</glyph>
<glyph name="i" format="2">
  <advance width="223"/>
  <unicode hex="0069"/>
  <outline>
    <contour>
      <point x="176" y="500" type="line"/>
      <point x="138" y="284" type="line"/>
      <point x="157" y="0" type="line"/>
      <point x="37" y="0" type="line"/>
      <point x="53" y="284" type="line"/>
      <point x="65" y="500" type="line"/>
    </contour>
    <contour>
      <point x="164" y="615" type="line"/>
      <point x="188" y="750" type="line"/>
      <point x="77" y="750" type="line"/>
      <point x="69" y="615" type="line"/>
    </contour>
  </outline>
</glyph>
<glyph name="j" format="2">
  <advance width="373"/>
  <unicode hex="006A"/>
  <outline>
    <contour>
      <point x="314" y="615" type="line"/>
      <point x="338" y="750" type="line"/>
      <point x="227" y="750" type="line"/>
      <point x="219" y="615" type="line"/>
    </contour>
    <contour>
      <point x="35" y="-226" type="curve"/>
      <point x="35" y="-117" type="line"/>
      <point x="197" y="-169" type="line"/>
      <point x="203" y="284" type="line"/>
      <point x="215" y="500" type="line"/>
      <point x="326" y="500" type="line"/>
      <point x="288" y="284" type="line"/>
      <point x="322" y="-226" type="line"/>
      <point x="216" y="-257"/>
      <point x="144" y="-257"/>
    </contour>
  </outline>
</glyph>
<glyph name="k" format="2">
  <advance width="531"/>
  <unicode hex="006B"/>
  <outline>
    <contour>
      <point x="37" y="750" type="line"/>
      <point x="114" y="0" type="line"/>
      <point x="234" y="0" type="line"/>
      <point x="305" y="320" type="line"/>
      <point x="372" y="0" type="line"/>
      <point x="492" y="0" type="line"/>
      <point x="334" y="448" type="line"/>
      <point x="409.971" y="422.035" type="line"/>
      <point x="492" y="394" type="line"/>
      <point x="511" y="500" type="line"/>
      <point x="455.182" y="515.363"/>
      <point x="409.067" y="522.858"/>
      <point x="363.12" y="522.487" type="curve" smooth="yes"/>
      <point x="319.343" y="522.133"/>
      <point x="275.718" y="514.637"/>
      <point x="224" y="500" type="curve"/>
      <point x="178" y="84" type="line"/>
      <point x="157" y="750" type="line"/>
    </contour>
  </outline>
</glyph>
<glyph name="l" format="2">
  <advance width="195"/>
  <unicode hex="006C"/>
  <outline>
    <contour>
      <point x="160" y="750" type="line"/>
      <point x="122" y="534" type="line"/>
      <point x="157" y="0" type="line"/>
      <point x="37" y="0" type="line"/>
      <point x="37" y="534" type="line"/>
      <point x="49" y="750" type="line"/>
    </contour>
  </outline>
</glyph>
<glyph name="m" format="2">
  <advance width="736"/>
  <unicode hex="006D"/>
  <outline>
    <contour>
      <point x="35" y="500" type="line"/>
      <point x="93" y="0" type="line"/>
      <point x="213" y="0" type="line"/>
      <point x="313" y="448" type="line"/>
      <point x="339.984" y="439.295" type="line"/>
      <point x="375" y="428" type="line"/>
      <point x="367" y="284" type="line"/>
      <point x="351" y="0" type="line"/>
      <point x="471" y="0" type="line"/>
      <point x="452" y="284" type="line"/>
      <point x="479.426" y="439.896" type="line"/>
      <point x="524" y="448" type="line"/>
      <point x="586" y="428" type="line"/>
      <point x="578" y="284" type="line"/>
      <point x="562" y="0" type="line"/>
      <point x="682" y="0" type="line"/>
      <point x="663" y="284" type="line"/>
      <point x="701" y="500" type="line"/>
      <point x="605.357" y="526.324"/>
      <point x="538.102" y="529.55"/>
      <point x="451.467" y="509.677" type="curve"/>
      <point x="410.737" y="518.81"/>
      <point x="374.639" y="522.904"/>
      <point x="339.171" y="522.374" type="curve" smooth="yes"/>
      <point x="295.335" y="521.718"/>
      <point x="252.462" y="513.999"/>
      <point x="203" y="500" type="curve"/>
      <point x="157" y="84" type="line"/>
      <point x="145" y="500" type="line"/>
    </contour>
  </outline>
</glyph>
<glyph name="n" format="2">
  <advance width="525"/>
  <unicode hex="006E"/>
  <outline>
    <contour>
      <point x="35" y="500" type="line"/>
      <point x="93" y="0" type="line"/>
      <point x="213" y="0" type="line"/>
      <point x="313" y="448" type="line"/>
      <point x="375" y="428" type="line"/>
      <point x="367" y="284" type="line"/>
      <point x="351" y="0" type="line"/>
      <point x="471" y="0" type="line"/>
      <point x="452" y="284" type="line"/>
      <point x="490" y="500" type="line"/>
      <point x="381" y="530"/>
      <point x="309" y="530"/>
      <point x="203" y="500" type="curve"/>
      <point x="157" y="84" type="line"/>
      <point x="145" y="500" type="line"/>
    </contour>
  </outline>
</glyph>
<glyph name="o" format="2">
  <advance width="456"/>
  <unicode hex="006F"/>
  <outline>
    <contour>
      <point x="95" y="507" type="line"/>
      <point x="238" y="507" type="line"/>
      <point x="397" y="507"/>
      <point x="419" y="349"/>
      <point x="419" y="211" type="curve"/>
      <point x="360" y="-5" type="line"/>
      <point x="229" y="-5" type="line"/>
      <point x="39" y="-5"/>
      <point x="37" y="172"/>
      <point x="37" y="279" type="curve"/>
    </contour>
    <contour>
      <point x="181" y="427" type="line"/>
      <point x="122" y="279" type="line"/>
      <point x="122" y="167"/>
      <point x="123" y="75"/>
      <point x="236" y="75" type="curve"/>
      <point x="276" y="75" type="line"/>
      <point x="334" y="211" type="line"/>
      <point x="334" y="325"/>
      <point x="323" y="427"/>
      <point x="196" y="427" type="curve"/>
    </contour>
  </outline>
</glyph>
<glyph name="p" format="2">
  <advance width="591"/>
  <unicode hex="0070"/>
  <outline>
    <contour>
      <point x="37" y="500" type="line"/>
      <point x="68" y="-250" type="line"/>
      <point x="188" y="-250" type="line"/>
      <point x="316" y="458" type="line"/>
      <point x="401" y="448" type="line"/>
      <point x="469" y="277" type="line"/>
      <point x="469" y="192"/>
      <point x="452" y="71"/>
      <point x="371" y="71" type="curve" smooth="yes"/>
      <point x="296" y="71"/>
      <point x="268" y="157"/>
      <point x="242" y="290" type="curve"/>
      <point x="215" y="159" type="line"/>
      <point x="227" y="108"/>
      <point x="267" y="0"/>
      <point x="374" y="0" type="curve" smooth="yes"/>
      <point x="522" y="0"/>
      <point x="554" y="178"/>
      <point x="554" y="285" type="curve"/>
      <point x="496" y="500" type="line"/>
      <point x="405" y="538"/>
      <point x="291" y="538"/>
      <point x="206" y="500" type="curve"/>
      <point x="137" y="-98" type="line"/>
      <point x="147" y="500" type="line"/>
    </contour>
  </outline>
</glyph>
<glyph name="q" format="2">
  <advance width="589"/>
  <unicode hex="0071"/>
  <outline>
    <contour>
      <point x="554" y="500" type="line"/>
      <point x="444" y="500" type="line"/>
      <point x="454" y="-98" type="line"/>
      <point x="385" y="500" type="line"/>
      <point x="300" y="538"/>
      <point x="186" y="538"/>
      <point x="95" y="500" type="curve"/>
      <point x="37" y="285" type="line"/>
      <point x="37" y="178"/>
      <point x="69" y="0"/>
      <point x="217" y="0" type="curve" smooth="yes"/>
      <point x="324" y="0"/>
      <point x="364" y="108"/>
      <point x="376" y="159" type="curve"/>
      <point x="349" y="290" type="line"/>
      <point x="323" y="157"/>
      <point x="295" y="71"/>
      <point x="220" y="71" type="curve" smooth="yes"/>
      <point x="139" y="71"/>
      <point x="122" y="192"/>
      <point x="122" y="277" type="curve"/>
      <point x="190" y="448" type="line"/>
      <point x="275" y="458" type="line"/>
      <point x="403" y="-250" type="line"/>
      <point x="523" y="-250" type="line"/>
    </contour>
  </outline>
</glyph>
<glyph name="r" format="2">
  <advance width="441"/>
  <unicode hex="0072"/>
  <outline>
    <contour>
      <point x="35" y="500" type="line"/>
      <point x="93" y="0" type="line"/>
      <point x="213" y="0" type="line"/>
      <point x="310.882" y="440.833" type="line"/>
      <point x="339.821" y="432.972" type="line"/>
      <point x="451" y="400" type="line"/>
      <point x="451" y="509" type="line"/>
      <point x="407.985" y="518.396"/>
      <point x="381.727" y="522.398"/>
      <point x="344.58" y="522.499" type="curve" smooth="yes"/>
      <point x="309.987" y="522.593"/>
      <point x="255.687" y="514.911"/>
      <point x="203" y="500" type="curve"/>
      <point x="157" y="84" type="line"/>
      <point x="145" y="500" type="line"/>
    </contour>
  </outline>
</glyph>
<glyph name="s" format="2">
  <advance width="429"/>
  <unicode hex="0073"/>
  <outline>
    <contour>
      <point x="34" y="0" type="line"/>
      <point x="124" y="-31"/>
      <point x="254" y="-31"/>
      <point x="338" y="0" type="curve"/>
      <point x="396" y="228" type="line"/>
      <point x="127" y="312" type="line"/>
      <point x="198" y="458" type="line"/>
      <point x="359" y="390" type="line"/>
      <point x="359" y="500" type="line"/>
      <point x="269" y="531"/>
      <point x="177" y="531"/>
      <point x="93" y="500" type="curve"/>
      <point x="33" y="270" type="line"/>
      <point x="295" y="148" type="line"/>
      <point x="239" y="47" type="line"/>
      <point x="34" y="120" type="line"/>
    </contour>
  </outline>
</glyph>
<glyph name="t" format="2">
  <advance width="324"/>
  <unicode hex="0074"/>
  <outline>
    <contour>
      <point x="159" y="700" type="line"/>
      <point x="122" y="500" type="line"/>
      <point x="157" y="0" type="line"/>
      <point x="37" y="0" type="line"/>
      <point x="37" y="500" type="line"/>
      <point x="48" y="700" type="line"/>
    </contour>
    <contour>
      <point x="122" y="500.429" type="line"/>
      <point x="175.578" y="510.151"/>
      <point x="195.36" y="513.109"/>
      <point x="223.097" y="513.248" type="curve" smooth="yes"/>
      <point x="250.31" y="513.385"/>
      <point x="284.985" y="509.397"/>
      <point x="329" y="500" type="curve"/>
      <point x="329" y="391.044" type="line"/>
      <point x="217.821" y="423.972" type="line"/>
      <point x="122" y="450" type="line"/>
    </contour>
  </outline>
</glyph>
<glyph name="u" format="2">
  <advance width="525"/>
  <unicode hex="0075"/>
  <outline>
    <contour>
      <point x="490" y="0" type="line"/>
      <point x="432" y="500" type="line"/>
      <point x="312" y="500" type="line"/>
      <point x="212" y="52" type="line"/>
      <point x="150" y="72" type="line"/>
      <point x="158" y="216" type="line"/>
      <point x="174" y="500" type="line"/>
      <point x="54" y="500" type="line"/>
      <point x="73" y="216" type="line"/>
      <point x="35" y="0" type="line"/>
      <point x="144" y="-31"/>
      <point x="216" y="-31"/>
      <point x="322" y="0" type="curve"/>
      <point x="368" y="416" type="line"/>
      <point x="380" y="0" type="line"/>
    </contour>
  </outline>
</glyph>
<glyph name="v" format="2">
  <advance width="551"/>
  <unicode hex="0076"/>
  <outline>
    <contour>
      <point x="20" y="216" type="line"/>
      <point x="120" y="216" type="line"/>
      <point x="128" y="386" type="line"/>
      <point x="180.459" y="225.292" type="line"/>
      <point x="254" y="0" type="line"/>
      <point x="354" y="0" type="line"/>
      <point x="449.631" y="270.143" type="line"/>
      <point x="531" y="500" type="line"/>
      <point x="421" y="500" type="line"/>
      <point x="365.002" y="292.422" type="line"/>
      <point x="305" y="70" type="line"/>
      <point x="252.473" y="291.436" type="line"/>
      <point x="203" y="500" type="line"/>
      <point x="83" y="500" type="line"/>
    </contour>
  </outline>
  <guideline angle="90" x="-789" y="0"/>
</glyph>
<glyph name="w" format="2">
  <advance width="832"/>
  <unicode hex="0077"/>
  <outline>
    <contour>
      <point x="20" y="216" type="line"/>
      <point x="120" y="216" type="line"/>
      <point x="128" y="386" type="line"/>
      <point x="166.247" y="268.832" type="line"/>
      <point x="254" y="0" type="line"/>
      <point x="355" y="0" type="line"/>
      <point x="426.677" y="268.599" type="line"/>
      <point x="450" y="356" type="line"/>
      <point x="471.189" y="266.199" type="line"/>
      <point x="534" y="0" type="line"/>
      <point x="634" y="0" type="line"/>
      <point x="730.208" y="270.248" type="line"/>
      <point x="812" y="500" type="line"/>
      <point x="702" y="500" type="line"/>
      <point x="640.378" y="271.889" type="line"/>
      <point x="588" y="78" type="line"/>
      <point x="555.181" y="270.357" type="line"/>
      <point x="516" y="500" type="line"/>
      <point x="385" y="500" type="line"/>
      <point x="342.81" y="270.358" type="line"/>
      <point x="306" y="70" type="line"/>
      <point x="258.373" y="268.831" type="line"/>
      <point x="203" y="500" type="line"/>
      <point x="83" y="501" type="line"/>
    </contour>
  </outline>
</glyph>
<glyph name="x" format="2">
  <advance width="551"/>
  <unicode hex="0078"/>
  <outline>
    <contour>
      <point x="20" y="284" type="line"/>
      <point x="130" y="284" type="line"/>
      <point x="127" y="426" type="line"/>
      <point x="226" y="251" type="line"/>
      <point x="30" y="0" type="line"/>
      <point x="156" y="0" type="line"/>
      <point x="267.427" y="174.81" type="line"/>
      <point x="361" y="0" type="line"/>
      <point x="466" y="0" type="line"/>
      <point x="531" y="216" type="line"/>
      <point x="421" y="216" type="line"/>
      <point x="414" y="71" type="line"/>
      <point x="325" y="252" type="line"/>
      <point x="501" y="500" type="line"/>
      <point x="375" y="500" type="line"/>
      <point x="278" y="322" type="line"/>
      <point x="180" y="500" type="line"/>
      <point x="75" y="500" type="line"/>
    </contour>
  </outline>
</glyph>
<glyph name="y" format="2">
  <advance width="530"/>
  <unicode hex="0079"/>
  <outline>
    <contour>
      <point x="10" y="216" type="line"/>
      <point x="110" y="216" type="line"/>
      <point x="120" y="390" type="line"/>
      <point x="171.532" y="267.688" type="line"/>
      <point x="286" y="-4" type="line"/>
      <point x="179" y="-169" type="line"/>
      <point x="17" y="-117" type="line"/>
      <point x="17" y="-226" type="line"/>
      <point x="107" y="-252"/>
      <point x="190" y="-252"/>
      <point x="274" y="-226" type="curve"/>
      <point x="445.921" y="261.557" type="line"/>
      <point x="530" y="500" type="line"/>
      <point x="420" y="500" type="line"/>
      <point x="360.649" y="270.237" type="line"/>
      <point x="319" y="109" type="line"/>
      <point x="266.526" y="271.837" type="line"/>
      <point x="193" y="500" type="line"/>
      <point x="73" y="500" type="line"/>
    </contour>
  </outline>
</glyph>
<glyph name="z" format="2">
  <advance width="395"/>
  <unicode hex="007A"/>
  <outline>
    <contour>
      <point x="360" y="500" type="curve"/>
      <point x="242.024" y="251.127" type="line"/>
      <point x="150" y="57" type="line"/>
      <point x="349" y="120" type="line"/>
      <point x="349" y="0" type="line"/>
      <point x="259" y="-31"/>
      <point x="119" y="-31"/>
      <point x="35" y="0" type="curve"/>
      <point x="162.389" y="261.856" type="line"/>
      <point x="251" y="444" type="line"/>
      <point x="64" y="391" type="line"/>
      <point x="64" y="500" type="line"/>
      <point x="154" y="531"/>
      <point x="276" y="531"/>
    </contour>
  </outline>
</glyph>
<glyph name="braceleft" format="2">
  <advance width="331"/>
  <unicode hex="007B"/>
  <outline>
    <contour>
      <point x="140" y="770" type="line"/>
      <point x="140" y="480.309" type="line"/>
      <point x="40" y="409.642" type="line"/>
      <point x="40" y="322.729" type="line"/>
      <point x="140" y="253.213" type="line"/>
      <point x="140" y="-37" type="line"/>
      <point x="139.784" y="-87" type="line"/>
      <point x="320" y="-87" type="line"/>
      <point x="320.021" y="23" type="line"/>
      <point x="243.334" y="0.150009" type="line"/>
      <point x="219.915" y="-7" type="line"/>
      <point x="220" y="295.385" type="line"/>
      <point x="119" y="365.881" type="line"/>
      <point x="119" y="368.421" type="line"/>
      <point x="220" y="436.872" type="line"/>
      <point x="220" y="740" type="line"/>
      <point x="253.633" y="729.91" type="line"/>
      <point x="320" y="710" type="line"/>
      <point x="320" y="820" type="line"/>
      <point x="140.377" y="820" type="line"/>
    </contour>
  </outline>
</glyph>
<glyph name="bar" format="2">
  <advance width="350"/>
  <unicode hex="007C"/>
  <outline>
    <contour>
      <point x="120" y="750" type="line"/>
      <point x="120" y="-250" type="line"/>
      <point x="200" y="-250" type="line"/>
      <point x="230" y="750" type="line"/>
    </contour>
  </outline>
</glyph>
<glyph name="braceright" format="2">
  <advance width="331"/>
  <unicode hex="007D"/>
  <outline>
    <contour>
      <point x="190.021" y="770" type="line"/>
      <point x="189.644" y="820" type="line"/>
      <point x="10.0207" y="820" type="line"/>
      <point x="10.0207" y="710" type="line"/>
      <point x="76.3873" y="729.91" type="line"/>
      <point x="110.021" y="740" type="line"/>
      <point x="110.021" y="436.872" type="line"/>
      <point x="211.021" y="368.421" type="line"/>
      <point x="211.021" y="365.881" type="line"/>
      <point x="110.021" y="295.385" type="line"/>
      <point x="110.106" y="-7" type="line"/>
      <point x="86.6866" y="0.150009" type="line"/>
      <point x="10" y="23" type="line"/>
      <point x="10.0207" y="-87" type="line"/>
      <point x="190.237" y="-87" type="line"/>
      <point x="190.021" y="-37" type="line"/>
      <point x="190.021" y="253.213" type="line"/>
      <point x="290.021" y="322.729" type="line"/>
      <point x="290.021" y="409.642" type="line"/>
      <point x="190.021" y="480.309" type="line"/>
    </contour>
  </outline>
</glyph>
<glyph name="asciitilde" format="2">
  <advance width="310"/>
  <unicode hex="007E"/>
  <outline>
    <contour>
      <point x="50" y="190" type="line"/>
      <point x="105" y="231.101" type="line"/>
      <point x="195" y="183" type="line"/>
      <point x="250" y="224" type="line"/>
      <point x="250" y="297.318" type="line"/>
      <point x="195" y="256.318" type="line"/>
      <point x="104.821" y="304.318" type="line"/>
      <point x="50" y="263.318" type="line"/>
    </contour>
  </outline>
</glyph>
<glyph name="exclamdown" format="2">
  <advance width="300"/>
  <unicode hex="00A1"/>
  <outline>
    <contour>
      <point x="140" y="500" type="line"/>
      <point x="140" y="420" type="line"/>
      <point x="220" y="420" type="line"/>
      <point x="220" y="500" type="line"/>
    </contour>
    <contour>
      <point x="220" y="320" type="line"/>
      <point x="220" y="-200" type="line"/>
      <point x="100" y="-200" type="line"/>
      <point x="140" y="320" type="line"/>
    </contour>
  </outline>
</glyph>
<glyph name="dieresis" format="2">
  <advance width="250"/>
  <unicode hex="00A8"/>
  <outline>
    <contour>
      <point x="100" y="670" type="line"/>
      <point x="110" y="750" type="line"/>
      <point x="30" y="750" type="line"/>
      <point x="30" y="670" type="line"/>
    </contour>
    <contour>
      <point x="210" y="670" type="line"/>
      <point x="220" y="750" type="line"/>
      <point x="140" y="750" type="line"/>
      <point x="140" y="670" type="line"/>
    </contour>
  </outline>
</glyph>
<glyph name="guillemotleft" format="2">
  <advance width="617"/>
  <unicode hex="00AB"/>
  <outline>
    <contour>
      <point x="203" y="460" type="line"/>
      <point x="40" y="265.452" type="line"/>
      <point x="203" y="70" type="line"/>
      <point x="340" y="70" type="line"/>
      <point x="137" y="265.453" type="line"/>
      <point x="340" y="460" type="line"/>
    </contour>
    <contour>
      <point x="420" y="460" type="line"/>
      <point x="257" y="265.452" type="line"/>
      <point x="420" y="70" type="line"/>
      <point x="557" y="70" type="line"/>
      <point x="354" y="265.453" type="line"/>
      <point x="557" y="460" type="line"/>
    </contour>
  </outline>
</glyph>
<glyph name="macron" format="2">
  <advance width="231"/>
  <unicode hex="00AF"/>
  <outline>
    <contour>
      <point x="20.6591" y="565" type="line"/>
      <point x="211" y="535" type="line"/>
      <point x="211" y="645.318" type="line"/>
      <point x="20.7551" y="645.318" type="line"/>
    </contour>
  </outline>
</glyph>
<glyph name="plusminus" format="2">
  <advance width="511"/>
  <unicode hex="00B1"/>
  <outline>
    <contour>
      <point x="291" y="100" type="line"/>
      <point x="211" y="100" type="line"/>
      <point x="211" y="499.934" type="line"/>
      <point x="331" y="499.934" type="line"/>
    </contour>
    <contour>
      <point x="80.5" y="278" type="line"/>
      <point x="80.5" y="358" type="line"/>
      <point x="430.442" y="358" type="line"/>
      <point x="430.442" y="238" type="line"/>
    </contour>
    <contour>
      <point x="91" y="-33" type="line"/>
      <point x="91" y="47" type="line"/>
      <point x="421" y="47" type="line"/>
      <point x="421" y="-73" type="line"/>
    </contour>
  </outline>
</glyph>
<glyph name="acute" format="2">
  <advance width="207"/>
  <unicode hex="00B4"/>
  <outline>
    <contour>
      <point x="167" y="630" type="line"/>
      <point x="177" y="700" type="line"/>
      <point x="67" y="700" type="line"/>
      <point x="67" y="640" type="line"/>
      <point x="30" y="565" type="line"/>
      <point x="110" y="565" type="line"/>
    </contour>
  </outline>
</glyph>
<glyph name="cedilla" format="2">
  <advance width="187"/>
  <unicode hex="00B8"/>
  <outline>
    <contour>
      <point x="157" y="-67" type="line"/>
      <point x="167" y="3" type="line"/>
      <point x="57" y="3" type="line"/>
      <point x="57" y="-57" type="line"/>
      <point x="20" y="-132" type="line"/>
      <point x="100" y="-132" type="line"/>
    </contour>
  </outline>
</glyph>
<glyph name="guillemotright" format="2">
  <advance width="617"/>
  <unicode hex="00BB"/>
  <outline>
    <contour>
      <point x="414" y="460" type="line"/>
      <point x="277" y="460" type="line"/>
      <point x="480" y="265.453" type="line"/>
      <point x="277" y="70" type="line"/>
      <point x="414" y="70" type="line"/>
      <point x="577" y="265.452" type="line"/>
    </contour>
    <contour>
      <point x="197" y="460" type="line"/>
      <point x="60" y="460" type="line"/>
      <point x="263" y="265.453" type="line"/>
      <point x="60" y="70" type="line"/>
      <point x="197" y="70" type="line"/>
      <point x="360" y="265.452" type="line"/>
    </contour>
  </outline>
</glyph>
<glyph name="questiondown" format="2">
  <advance width="381"/>
  <unicode hex="00BF"/>
  <outline>
    <contour>
      <point x="300.053" y="320" type="line"/>
      <point x="300.053" y="162.401" type="line"/>
      <point x="249.253" y="95.3388"/>
      <point x="170.898" y="-42.6033"/>
      <point x="169.801" y="-113.852" type="curve"/>
      <point x="320.053" y="-79.9401" type="line"/>
      <point x="320.053" y="-200" type="line"/>
      <point x="150.095" y="-200"/>
      <point x="80.097" y="-201"/>
      <point x="80.0453" y="-99" type="curve" smooth="yes"/>
      <point x="80" y="-9.74451"/>
      <point x="174.253" y="121.338"/>
      <point x="220.053" y="188.401" type="curve"/>
      <point x="220.053" y="319.999" type="line"/>
    </contour>
    <contour>
      <point x="221.053" y="500" type="line"/>
      <point x="221.053" y="420" type="line"/>
      <point x="301.053" y="420" type="line"/>
      <point x="301.053" y="500" type="line"/>
    </contour>
  </outline>
</glyph>
<glyph name="AE" format="2">
  <advance width="881"/>
  <unicode hex="00C6"/>
  <outline>
    <contour>
      <point x="469" y="700" type="line"/>
      <point x="469" y="591.23" type="line"/>
      <point x="469" y="122.507" type="line"/>
      <point x="469" y="0" type="line"/>
      <point x="849" y="0" type="line"/>
      <point x="849" y="120" type="line"/>
      <point x="549" y="79" type="line"/>
      <point x="549" y="122.509" type="line"/>
      <point x="549" y="260.683" type="line"/>
      <point x="549" y="303" type="line"/>
      <point x="779" y="272" type="line"/>
      <point x="779" y="382" type="line"/>
      <point x="549" y="382" type="line"/>
      <point x="549" y="587.91" type="line"/>
      <point x="549" y="621" type="line"/>
      <point x="839" y="580" type="line"/>
      <point x="839" y="700" type="line"/>
    </contour>
    <contour>
      <point x="469" y="700" type="line"/>
      <point x="20" y="0" type="line"/>
      <point x="159" y="0" type="line"/>
      <point x="267" y="201" type="line"/>
      <point x="469" y="161" type="line"/>
      <point x="469" y="0" type="line"/>
      <point x="549" y="0" type="line"/>
      <point x="549" y="587.91" type="line"/>
      <point x="549.16" y="700" type="line"/>
    </contour>
    <contour>
      <point x="304" y="281" type="line"/>
      <point x="469" y="551" type="line"/>
      <point x="469" y="500" type="line"/>
      <point x="468" y="281" type="line"/>
    </contour>
  </outline>
</glyph>
<glyph name="Eth" format="2">
  <advance width="534"/>
  <unicode hex="00D0"/>
  <outline>
    <component base="D"/>
    <contour>
      <point x="0" y="327" type="line"/>
      <point x="0" y="407" type="line"/>
      <point x="200" y="407" type="line"/>
      <point x="200" y="287" type="line"/>
    </contour>
  </outline>
</glyph>
<glyph name="Oslash" format="2">
  <advance width="612"/>
  <unicode hex="00D8"/>
  <outline>
    <component base="O"/>
    <contour>
      <point x="165.826" y="-50" type="line"/>
      <point x="333" y="750" type="line"/>
      <point x="454" y="750" type="line"/>
      <point x="246.826" y="-50" type="line"/>
    </contour>
  </outline>
</glyph>
<glyph name="Thorn" format="2">
  <advance width="523"/>
  <unicode hex="00DE"/>
  <outline>
    <contour>
      <point x="135" y="259" type="line"/>
      <point x="292" y="239" type="line"/>
      <point x="369" y="240"/>
      <point x="395" y="267"/>
      <point x="395" y="358" type="curve"/>
      <point x="277" y="475" type="line"/>
      <point x="147" y="475" type="line"/>
    </contour>
    <contour>
      <point x="291" y="159" type="curve"/>
      <point x="129" y="159" type="line"/>
      <point x="120" y="0" type="line"/>
      <point x="40" y="0" type="line"/>
      <point x="40" y="699.557" type="line"/>
      <point x="160" y="700" type="line"/>
      <point x="152.055" y="555" type="line"/>
      <point x="363" y="555" type="line"/>
      <point x="481" y="385" type="line"/>
      <point x="481" y="268"/>
      <point x="460" y="159"/>
    </contour>
  </outline>
</glyph>
<glyph name="ae" format="2">
  <advance width="805"/>
  <unicode hex="00E6"/>
  <outline>
    <contour>
      <point x="535" y="513" type="line"/>
      <point x="424" y="513" type="line"/>
      <point x="413" y="84" type="line"/>
      <point x="365" y="500" type="line"/>
      <point x="280" y="538"/>
      <point x="186" y="538"/>
      <point x="95" y="500" type="curve"/>
      <point x="37" y="285" type="line"/>
      <point x="37" y="178"/>
      <point x="69" y="0"/>
      <point x="207" y="0" type="curve" smooth="yes"/>
      <point x="314" y="0"/>
      <point x="344" y="107"/>
      <point x="356" y="158" type="curve"/>
      <point x="329" y="291" type="line"/>
      <point x="303" y="158"/>
      <point x="285" y="71"/>
      <point x="210" y="71" type="curve" smooth="yes"/>
      <point x="139" y="71"/>
      <point x="122" y="192"/>
      <point x="122" y="277" type="curve"/>
      <point x="190" y="448" type="line"/>
      <point x="255" y="458" type="line"/>
      <point x="357" y="0" type="line"/>
      <point x="477" y="0" type="line"/>
    </contour>
    <contour>
      <point x="741" y="-5" type="line"/>
      <point x="741" y="105" type="line"/>
      <point x="597" y="75" type="line"/>
      <point x="508" y="75"/>
      <point x="509" y="167"/>
      <point x="509" y="279" type="curve"/>
      <point x="526" y="432" type="line"/>
      <point x="578" y="432" type="line"/>
      <point x="675" y="432"/>
      <point x="692" y="325"/>
      <point x="692" y="279" type="curve"/>
      <point x="493" y="279" type="line"/>
      <point x="493" y="199" type="line"/>
      <point x="780" y="199" type="line"/>
      <point x="780" y="201" type="line"/>
      <point x="780" y="349"/>
      <point x="758" y="513"/>
      <point x="599" y="513" type="curve"/>
      <point x="424" y="513" type="line"/>
      <point x="418" y="279" type="line"/>
      <point x="418" y="172"/>
      <point x="420" y="-5"/>
      <point x="590" y="-5" type="curve"/>
    </contour>
  </outline>
</glyph>
<glyph name="divide" format="2">
  <advance width="350"/>
  <unicode hex="00F7"/>
  <outline>
    <component base="minus"/>
    <contour>
      <point x="210" y="80" type="line"/>
      <point x="140" y="80" type="line"/>
      <point x="140" y="160" type="line"/>
      <point x="220" y="160" type="line"/>
    </contour>
    <contour>
      <point x="210" y="352" type="line"/>
      <point x="140" y="352" type="line"/>
      <point x="140" y="432" type="line"/>
      <point x="220" y="432" type="line"/>
    </contour>
  </outline>
</glyph>
<glyph name="oslash" format="2">
  <advance width="456"/>
  <unicode hex="00F8"/>
  <outline>
    <component base="o"/>
    <contour>
      <point x="104.826" y="-109" type="line"/>
      <point x="244.174" y="591" type="line"/>
      <point x="365.174" y="591" type="line"/>
      <point x="185.826" y="-109" type="line"/>
    </contour>
  </outline>
</glyph>
<glyph name="thorn" format="2">
  <advance width="601"/>
  <unicode hex="00FE"/>
  <outline>
    <contour>
      <point x="37.1315" y="750" type="line"/>
      <point x="78" y="-250" type="line"/>
      <point x="198" y="-250" type="line"/>
      <point x="326" y="458" type="line"/>
      <point x="411" y="448" type="line"/>
      <point x="479" y="277" type="line"/>
      <point x="479" y="192"/>
      <point x="462" y="71"/>
      <point x="381" y="71" type="curve" smooth="yes"/>
      <point x="306" y="71"/>
      <point x="278" y="157"/>
      <point x="252" y="290" type="curve"/>
      <point x="225" y="159" type="line"/>
      <point x="237" y="108"/>
      <point x="277" y="0"/>
      <point x="384" y="0" type="curve" smooth="yes"/>
      <point x="532" y="0"/>
      <point x="564" y="178"/>
      <point x="564" y="285" type="curve"/>
      <point x="506" y="500" type="line"/>
      <point x="415" y="538"/>
      <point x="301" y="538"/>
      <point x="216" y="500" type="curve"/>
      <point x="147" y="-98" type="line"/>
      <point x="147.132" y="750" type="line"/>
    </contour>
  </outline>
</glyph>
<glyph name="aogonek" format="2">
  <advance width="569"/>
  <unicode hex="0105"/>
  <outline>
    <component base="a"/>
    <contour>
      <point x="357.012" y="0.8616" type="line"/>
      <point x="337.784" y="-54.6441" type="line" smooth="yes"/>
      <point x="325.102" y="-91.257"/>
      <point x="338.086" y="-132.363"/>
      <point x="380" y="-125" type="curve" smooth="yes"/>
      <point x="454" y="-112" type="line"/>
      <point x="454" y="-32" type="line"/>
      <point x="401.308" y="-59.3071" type="line" smooth="yes"/>
      <point x="387.804" y="-66.3055"/>
      <point x="378.545" y="-50.8911"/>
      <point x="397.361" y="-41.1929" type="curve" smooth="yes"/>
      <point x="477.012" y="-0.138414" type="line"/>
    </contour>
  </outline>
</glyph>
<glyph name="Iogonek" format="2">
  <advance width="224"/>
  <unicode hex="012E"/>
  <outline>
    <component base="I" xOffset="24"/>
    <contour>
      <point x="64.0119" y="0.8616" type="line"/>
      <point x="44.7844" y="-54.6441" type="line" smooth="yes"/>
      <point x="32.1016" y="-91.257"/>
      <point x="45.0858" y="-132.363"/>
      <point x="87" y="-125" type="curve" smooth="yes"/>
      <point x="161" y="-112" type="line"/>
      <point x="161" y="-32" type="line"/>
      <point x="108.308" y="-59.3071" type="line" smooth="yes"/>
      <point x="94.8036" y="-66.3055"/>
      <point x="89.6553" y="-56.419"/>
      <point x="104.361" y="-41.1929" type="curve" smooth="yes"/>
      <point x="144.012" y="-0.138401" type="line"/>
    </contour>
  </outline>
</glyph>
<glyph name="dotlessi" format="2">
  <advance width="211"/>
  <unicode hex="0131"/>
  <outline>
    <contour>
      <point x="176" y="500" type="line"/>
      <point x="138" y="284" type="line"/>
      <point x="157" y="0" type="line"/>
      <point x="37" y="0" type="line"/>
      <point x="53" y="284" type="line"/>
      <point x="65" y="500" type="line"/>
    </contour>
  </outline>
</glyph>
<glyph name="jcircumflex" format="2">
  <advance width="361"/>
  <unicode hex="0135"/>
  <outline>
    <component base="circumflex" xOffset="150.67" yOffset="-50"/>
    <contour>
      <point x="35" y="-226" type="curve"/>
      <point x="35" y="-117" type="line"/>
      <point x="197" y="-169" type="line"/>
      <point x="203" y="284" type="line"/>
      <point x="215" y="500" type="line"/>
      <point x="326" y="500" type="line"/>
      <point x="288" y="284" type="line"/>
      <point x="322" y="-226" type="line"/>
      <point x="216" y="-257"/>
      <point x="144" y="-257"/>
    </contour>
  </outline>
</glyph>
<glyph name="Tcedilla" format="2">
  <advance width="440"/>
  <unicode hex="0162"/>
  <outline>
    <component base="T"/>
    <contour>
      <point x="270" y="-60" type="line"/>
      <point x="280" y="0" type="line"/>
      <point x="160" y="0" type="line"/>
      <point x="160" y="-50" type="line"/>
      <point x="123" y="-125" type="line"/>
      <point x="213" y="-125" type="line"/>
    </contour>
  </outline>
</glyph>
<glyph name="tcedilla" format="2">
  <advance width="341"/>
  <unicode hex="0163"/>
  <outline>
    <component base="t" xOffset="17"/>
    <contour>
      <point x="164.5" y="-59" type="line"/>
      <point x="174.5" y="1" type="line"/>
      <point x="54.5" y="1" type="line"/>
      <point x="54.5" y="-49" type="line"/>
      <point x="37.5" y="-124" type="line"/>
      <point x="107.5" y="-124" type="line"/>
    </contour>
  </outline>
</glyph>
<glyph name="circumflex" format="2">
  <advance width="237"/>
  <unicode hex="02C6"/>
  <outline>
    <contour>
      <point x="20.6591" y="625" type="line"/>
      <point x="100.659" y="624.636" type="line"/>
      <point x="118.659" y="686" type="line"/>
      <point x="138" y="625" type="line"/>
      <point x="217" y="625" type="line"/>
      <point x="144" y="750" type="line"/>
      <point x="94" y="750" type="line"/>
    </contour>
  </outline>
</glyph>
<glyph name="dotaccent" format="2">
  <advance width="120"/>
  <unicode hex="02D9"/>
  <outline>
    <contour>
      <point x="90" y="670" type="line"/>
      <point x="100" y="750" type="line"/>
      <point x="20" y="750" type="line"/>
      <point x="20" y="670" type="line"/>
    </contour>
  </outline>
</glyph>
<glyph name="ring" format="2">
  <advance width="185"/>
  <unicode hex="02DA"/>
  <outline>
    <contour>
      <point x="30" y="637.5" type="curve" smooth="yes"/>
      <point x="30" y="603.3"/>
      <point x="58.3" y="575"/>
      <point x="92.5" y="575" type="curve" smooth="yes"/>
      <point x="126.7" y="575"/>
      <point x="155" y="603.3"/>
      <point x="155" y="637.5" type="curve" smooth="yes"/>
      <point x="155" y="672.35"/>
      <point x="127.05" y="700"/>
      <point x="92.5" y="700" type="curve" smooth="yes"/>
      <point x="58.3" y="700"/>
      <point x="30" y="671.7"/>
    </contour>
    <contour>
      <point x="81.05" y="638.25" type="curve" smooth="yes"/>
      <point x="81.05" y="644.9"/>
      <point x="86.55" y="650.45"/>
      <point x="93.25" y="650.45" type="curve" smooth="yes"/>
      <point x="99.9" y="650.45"/>
      <point x="105.45" y="644.9"/>
      <point x="105.45" y="638.25" type="curve" smooth="yes"/>
      <point x="105.45" y="631.55"/>
      <point x="99.9" y="626.05"/>
      <point x="93.25" y="626.05" type="curve" smooth="yes"/>
      <point x="86.55" y="626.05"/>
      <point x="81.05" y="631.55"/>
    </contour>
  </outline>
</glyph>
<glyph name="commaaccentcomb" format="2">
  <advance width="177"/>
  <unicode hex="0326"/>
  <outline>
    <contour>
      <point x="147" y="180" type="line"/>
      <point x="157" y="240" type="line"/>
      <point x="57" y="240" type="line"/>
      <point x="57" y="190" type="line"/>
      <point x="20" y="115" type="line"/>
      <point x="90" y="115" type="line"/>
    </contour>
  </outline>
</glyph>
<glyph name="endash" format="2">
  <advance width="350"/>
  <unicode hex="2013"/>
  <outline>
    <contour>
      <point x="50" y="227" type="line"/>
      <point x="50" y="307" type="line"/>
      <point x="300" y="307" type="line"/>
      <point x="300" y="187" type="line"/>
    </contour>
  </outline>
</glyph>
<glyph name="emdash" format="2">
  <advance width="500"/>
  <unicode hex="2014"/>
  <outline>
    <contour>
      <point x="50" y="227" type="line"/>
      <point x="50" y="307" type="line"/>
      <point x="449.791" y="307" type="line"/>
      <point x="449.791" y="187" type="line"/>
    </contour>
  </outline>
</glyph>
<glyph name="quoteleft" format="2">
  <advance width="237"/>
  <unicode hex="2018"/>
  <outline>
    <contour>
      <point x="60" y="585" type="line"/>
      <point x="50" y="485" type="line"/>
      <point x="160" y="485" type="line"/>
      <point x="160" y="585" type="line"/>
      <point x="187" y="700" type="line"/>
      <point x="117" y="700" type="line"/>
    </contour>
  </outline>
</glyph>
<glyph name="quoteright" format="2">
  <advance width="237"/>
  <unicode hex="2019"/>
  <outline>
    <contour>
      <point x="177" y="600" type="line"/>
      <point x="187" y="700" type="line"/>
      <point x="77" y="700" type="line"/>
      <point x="77" y="600" type="line"/>
      <point x="50" y="485" type="line"/>
      <point x="120" y="485" type="line"/>
    </contour>
  </outline>
</glyph>
<glyph name="quotesinglbase" format="2">
  <advance width="227"/>
  <unicode hex="201A"/>
  <outline>
    <contour>
      <point x="177" y="0" type="line"/>
      <point x="187" y="100" type="line"/>
      <point x="77" y="100" type="line"/>
      <point x="77" y="0" type="line"/>
      <point x="50" y="-115" type="line"/>
      <point x="120" y="-115" type="line"/>
    </contour>
  </outline>
</glyph>
<glyph name="quotedblleft" format="2">
  <advance width="397"/>
  <unicode hex="201C"/>
  <outline>
    <contour>
      <point x="220" y="585" type="line"/>
      <point x="210" y="485" type="line"/>
      <point x="320" y="485" type="line"/>
      <point x="320" y="585" type="line"/>
      <point x="347" y="700" type="line"/>
      <point x="277" y="700" type="line"/>
    </contour>
    <contour>
      <point x="60" y="585" type="line"/>
      <point x="50" y="485" type="line"/>
      <point x="160" y="485" type="line"/>
      <point x="160" y="585" type="line"/>
      <point x="187" y="700" type="line"/>
      <point x="117" y="700" type="line"/>
    </contour>
  </outline>
</glyph>
<glyph name="quotedblright" format="2">
  <advance width="387"/>
  <unicode hex="201D"/>
  <outline>
    <contour>
      <point x="177" y="600" type="line"/>
      <point x="187" y="700" type="line"/>
      <point x="77" y="700" type="line"/>
      <point x="77" y="600" type="line"/>
      <point x="50" y="485" type="line"/>
      <point x="120" y="485" type="line"/>
    </contour>
    <contour>
      <point x="337" y="600" type="line"/>
      <point x="347" y="700" type="line"/>
      <point x="237" y="700" type="line"/>
      <point x="237" y="600" type="line"/>
      <point x="210" y="485" type="line"/>
      <point x="280" y="485" type="line"/>
    </contour>
  </outline>
</glyph>
<glyph name="quotedblbase" format="2">
  <advance width="387"/>
  <unicode hex="201E"/>
  <outline>
    <contour>
      <point x="177" y="0" type="line"/>
      <point x="187" y="100" type="line"/>
      <point x="77" y="100" type="line"/>
      <point x="77" y="0" type="line"/>
      <point x="50" y="-115" type="line"/>
      <point x="120" y="-115" type="line"/>
    </contour>
    <contour>
      <point x="337" y="0" type="line"/>
      <point x="347" y="100" type="line"/>
      <point x="237" y="100" type="line"/>
      <point x="237" y="0" type="line"/>
      <point x="210" y="-115" type="line"/>
      <point x="280" y="-115" type="line"/>
    </contour>
  </outline>
</glyph>
<glyph name="bullet" format="2">
  <advance width="360"/>
  <unicode hex="2022"/>
  <outline>
    <contour>
      <point x="240" y="222" type="line"/>
      <point x="240" y="342" type="line"/>
      <point x="120" y="342" type="line"/>
      <point x="120" y="222" type="line"/>
    </contour>
  </outline>
</glyph>
<glyph name="perthousand" format="2">
  <advance width="1040"/>
  <unicode hex="2030"/>
  <outline>
    <contour>
      <point x="152" y="0" type="line"/>
      <point x="491.348" y="700" type="line"/>
      <point x="614.348" y="700" type="line"/>
      <point x="235" y="0" type="line"/>
    </contour>
    <contour>
      <point x="503.946" y="406.529" type="line"/>
      <point x="572.876" y="406.529" type="line"/>
      <point x="697.994" y="406.529"/>
      <point x="709" y="259.4"/>
      <point x="709" y="174.25" type="curve"/>
      <point x="662.66" y="-3" type="line"/>
      <point x="593.15" y="-3" type="line"/>
      <point x="467.453" y="-3"/>
      <point x="456.447" y="144.129"/>
      <point x="456.447" y="229.858" type="curve"/>
    </contour>
    <contour>
      <point x="568.635" y="336.944" type="line"/>
      <point x="515.612" y="230.437" type="line"/>
      <point x="515.612" y="162.599"/>
      <point x="528.355" y="56.585"/>
      <point x="593.15" y="56.585" type="curve"/>
      <point x="594.392" y="56.585" type="line"/>
      <point x="647.836" y="173.092" type="line"/>
      <point x="647.836" y="250.351"/>
      <point x="637.092" y="336.944"/>
      <point x="572.876" y="336.944" type="curve"/>
    </contour>
    <contour>
      <point x="87.9458" y="699.529" type="line"/>
      <point x="156.876" y="699.529" type="line"/>
      <point x="281.994" y="699.529"/>
      <point x="293" y="552.4"/>
      <point x="293" y="467.25" type="curve"/>
      <point x="246.66" y="290" type="line"/>
      <point x="177.15" y="290" type="line"/>
      <point x="51.4531" y="290"/>
      <point x="40.4474" y="437.129"/>
      <point x="40.4474" y="522.858" type="curve"/>
    </contour>
    <contour>
      <point x="152.635" y="629.944" type="line"/>
      <point x="99.6116" y="523.437" type="line"/>
      <point x="99.6116" y="455.599"/>
      <point x="112.355" y="349.585"/>
      <point x="177.15" y="349.585" type="curve"/>
      <point x="178.392" y="349.585" type="line"/>
      <point x="231.836" y="466.092" type="line"/>
      <point x="231.836" y="543.351"/>
      <point x="221.092" y="629.944"/>
      <point x="156.876" y="629.944" type="curve"/>
    </contour>
    <contour>
      <point x="794.946" y="406.529" type="line"/>
      <point x="863.876" y="406.529" type="line"/>
      <point x="988.994" y="406.529"/>
      <point x="1000" y="259.4"/>
      <point x="1000" y="174.25" type="curve"/>
      <point x="953.66" y="-3" type="line"/>
      <point x="884.15" y="-3" type="line"/>
      <point x="758.453" y="-3"/>
      <point x="747.447" y="144.129"/>
      <point x="747.447" y="229.858" type="curve"/>
    </contour>
    <contour>
      <point x="859.635" y="336.944" type="line"/>
      <point x="806.612" y="230.437" type="line"/>
      <point x="806.612" y="162.599"/>
      <point x="819.355" y="56.585"/>
      <point x="884.15" y="56.585" type="curve"/>
      <point x="885.392" y="56.585" type="line"/>
      <point x="938.836" y="173.092" type="line"/>
      <point x="938.836" y="250.351"/>
      <point x="928.092" y="336.944"/>
      <point x="863.876" y="336.944" type="curve"/>
    </contour>
  </outline>
</glyph>
<glyph name="guilsinglright" format="2">
  <advance width="400"/>
  <unicode hex="203A"/>
  <outline>
    <contour>
      <point x="197" y="460" type="line"/>
      <point x="60" y="460" type="line"/>
      <point x="263" y="265.453" type="line"/>
      <point x="60" y="70" type="line"/>
      <point x="197" y="70" type="line"/>
      <point x="360" y="265.452" type="line"/>
    </contour>
  </outline>
</glyph>
<glyph name="Euro" format="2">
  <advance width="600"/>
  <unicode hex="20AC"/>
  <outline>
    <contour>
      <point x="42" y="233" type="line"/>
      <point x="42" y="313" type="line"/>
      <point x="442" y="313" type="line"/>
      <point x="442" y="203" type="line"/>
    </contour>
    <contour>
      <point x="42" y="394" type="line"/>
      <point x="42" y="474" type="line"/>
      <point x="442" y="474" type="line"/>
      <point x="442" y="364" type="line"/>
    </contour>
    <contour>
      <point x="540" y="0" type="line"/>
      <point x="355" y="0" type="line"/>
      <point x="115" y="0"/>
      <point x="117" y="239"/>
      <point x="117" y="389" type="curve"/>
      <point x="195" y="690" type="line"/>
      <point x="313" y="722"/>
      <point x="442" y="722"/>
      <point x="568" y="690" type="curve"/>
      <point x="568" y="569" type="line"/>
      <point x="274" y="633" type="line"/>
      <point x="207" y="388" type="line"/>
      <point x="207" y="224"/>
      <point x="222" y="90"/>
      <point x="355" y="90" type="curve"/>
      <point x="540" y="110" type="line"/>
    </contour>
  </outline>
</glyph>
